<svg xmlns="http://www.w3.org/2000/svg" xmlns:xlink="http://www.w3.org/1999/xlink" width="500" zoomAndPan="magnify" viewBox="0 0 375 374.999991" height="500" preserveAspectRatio="xMidYMid meet" version="1.0"><defs><g/><clipPath id="99b3b5d8b2"><path d="M 213 117 L 332 117 L 332 249 L 213 249 Z M 213 117 " clip-rule="nonzero"/></clipPath><clipPath id="b0fceb3eec"><path d="M 210.488281 125.210938 L 320.925781 108.148438 L 340.851562 237.117188 L 230.410156 254.179688 Z M 210.488281 125.210938 " clip-rule="nonzero"/></clipPath><clipPath id="0b20e05b63"><path d="M 210.488281 125.210938 L 320.925781 108.148438 L 340.851562 237.117188 L 230.410156 254.179688 Z M 210.488281 125.210938 " clip-rule="nonzero"/></clipPath><clipPath id="1c0461a38e"><path d="M 262.050781 98.195312 L 308.230469 98.195312 L 308.230469 144.375 L 262.050781 144.375 Z M 262.050781 98.195312 " clip-rule="nonzero"/></clipPath><clipPath id="7397ae7b26"><path d="M 285.140625 144.375 C 278.976562 144.375 273.171875 141.976562 268.816406 137.609375 C 264.449219 133.253906 262.050781 127.449219 262.050781 121.285156 C 262.050781 115.121094 264.449219 109.316406 268.816406 104.960938 C 273.171875 100.59375 278.976562 98.195312 285.140625 98.195312 C 291.304688 98.195312 297.109375 100.59375 301.464844 104.960938 C 305.832031 109.324219 308.230469 115.121094 308.230469 121.285156 C 308.230469 127.449219 305.832031 133.253906 301.464844 137.609375 C 297.109375 141.976562 291.304688 144.375 285.140625 144.375 Z M 285.140625 99.578125 C 279.34375 99.578125 273.890625 101.839844 269.792969 105.9375 C 265.695312 110.035156 263.433594 115.488281 263.433594 121.285156 C 263.433594 127.082031 265.695312 132.535156 269.792969 136.632812 C 273.890625 140.730469 279.34375 142.992188 285.140625 142.992188 C 290.9375 142.992188 296.390625 140.730469 300.488281 136.632812 C 304.585938 132.535156 306.847656 127.082031 306.847656 121.285156 C 306.847656 115.488281 304.585938 110.035156 300.488281 105.9375 C 296.390625 101.839844 290.9375 99.578125 285.140625 99.578125 Z M 285.140625 99.578125 " clip-rule="nonzero"/></clipPath><clipPath id="2f7462efdd"><path d="M 0.0507812 0.195312 L 46.230469 0.195312 L 46.230469 46.375 L 0.0507812 46.375 Z M 0.0507812 0.195312 " clip-rule="nonzero"/></clipPath><clipPath id="00f6c29f96"><path d="M 23.140625 46.375 C 16.976562 46.375 11.171875 43.976562 6.816406 39.609375 C 2.449219 35.253906 0.0507812 29.449219 0.0507812 23.285156 C 0.0507812 17.121094 2.449219 11.316406 6.816406 6.960938 C 11.171875 2.59375 16.976562 0.195312 23.140625 0.195312 C 29.304688 0.195312 35.109375 2.59375 39.464844 6.960938 C 43.832031 11.324219 46.230469 17.121094 46.230469 23.285156 C 46.230469 29.449219 43.832031 35.253906 39.464844 39.609375 C 35.109375 43.976562 29.304688 46.375 23.140625 46.375 Z M 23.140625 1.578125 C 17.34375 1.578125 11.890625 3.839844 7.792969 7.9375 C 3.695312 12.035156 1.433594 17.488281 1.433594 23.285156 C 1.433594 29.082031 3.695312 34.535156 7.792969 38.632812 C 11.890625 42.730469 17.34375 44.992188 23.140625 44.992188 C 28.9375 44.992188 34.390625 42.730469 38.488281 38.632812 C 42.585938 34.535156 44.847656 29.082031 44.847656 23.285156 C 44.847656 17.488281 42.585938 12.035156 38.488281 7.9375 C 34.390625 3.839844 28.9375 1.578125 23.140625 1.578125 Z M 23.140625 1.578125 " clip-rule="nonzero"/></clipPath><clipPath id="7696f7b86e"><rect x="0" width="47" y="0" height="47"/></clipPath></defs><rect x="-37.5" width="450" fill="#ffffff" y="-37.499999" height="449.999989" fill-opacity="1"/><rect x="-37.5" width="450" fill="#ffffff" y="-37.499999" height="449.999989" fill-opacity="1"/><g clip-path="url(#99b3b5d8b2)"><g clip-path="url(#b0fceb3eec)"><g clip-path="url(#0b20e05b63)"><path fill="#3b3a3a" d="M 276.300781 247.296875 C 259.179688 249.941406 242.035156 245.800781 227.996094 235.625 L 228.605469 234.785156 C 242.417969 244.800781 259.292969 248.875 276.144531 246.269531 C 276.25 246.253906 276.351562 246.238281 276.457031 246.222656 C 293.417969 243.519531 308.304688 234.375 318.386719 220.46875 C 328.46875 206.570312 332.527344 189.574219 329.824219 172.617188 C 327.121094 155.65625 317.976562 140.769531 304.070312 130.6875 C 290.257812 120.671875 273.382812 116.597656 256.53125 119.199219 C 256.425781 119.21875 256.324219 119.234375 256.21875 119.25 C 239.257812 121.953125 224.371094 131.097656 214.289062 145.003906 L 213.449219 144.394531 C 223.691406 130.265625 238.824219 120.972656 256.054688 118.226562 C 256.160156 118.207031 256.265625 118.191406 256.375 118.175781 C 273.5 115.53125 290.644531 119.667969 304.683594 129.847656 C 318.808594 140.089844 328.101562 155.222656 330.847656 172.453125 C 333.59375 189.683594 329.46875 206.957031 319.226562 221.082031 C 308.984375 235.207031 293.851562 244.5 276.621094 247.246094 C 276.515625 247.261719 276.410156 247.28125 276.300781 247.296875 Z M 276.300781 247.296875 " fill-opacity="1" fill-rule="nonzero"/></g></g></g><path stroke-linecap="round" transform="matrix(0.749995, 0.00261974, -0.00261974, 0.749995, 63.323292, 236.896948)" fill="none" stroke-linejoin="miter" d="M 0.999521 0.998501 L 195.219484 1.002386 " stroke="#3b3a3a" stroke-width="2" stroke-opacity="1" stroke-miterlimit="4"/><g clip-path="url(#1c0461a38e)"><g clip-path="url(#7397ae7b26)"><g transform="matrix(1, 0, 0, 1, 262, 98)"><g clip-path="url(#7696f7b86e)"><g clip-path="url(#2f7462efdd)"><g clip-path="url(#00f6c29f96)"><path fill="#3b3a3a" d="M 0.0507812 0.195312 L 46.230469 0.195312 L 46.230469 46.375 L 0.0507812 46.375 Z M 0.0507812 0.195312 " fill-opacity="1" fill-rule="nonzero"/></g></g></g></g></g></g><g fill="#000000" fill-opacity="1"><g transform="translate(63.245361, 211.255225)"><g><path d="M 11.03125 0 L 7.625 0 L 7.625 -40.734375 L 4.09375 -40.734375 L 4.09375 -44.140625 L 11.03125 -44.140625 Z M 11.03125 0 "/></g></g></g><g fill="#000000" fill-opacity="1"><g transform="translate(83.420973, 211.255225)"><g><path d="M 41.984375 0 L 38.578125 0 L 38.578125 -20.359375 L 3.84375 -20.359375 L 3.84375 -44.140625 L 7.25 -44.140625 L 7.25 -23.765625 L 38.578125 -23.765625 L 38.578125 -44.140625 L 41.984375 -44.140625 Z M 41.984375 0 "/></g></g></g><g fill="#000000" fill-opacity="1"><g transform="translate(134.615679, 211.255225)"><g><path d="M 30.890625 -23.765625 C 33.078125 -23.765625 35.0625 -23.226562 36.84375 -22.15625 C 38.632812 -21.082031 40.066406 -19.648438 41.140625 -17.859375 C 42.210938 -16.078125 42.75 -14.097656 42.75 -11.921875 C 42.75 -9.734375 42.210938 -7.734375 41.140625 -5.921875 C 40.066406 -4.117188 38.632812 -2.679688 36.84375 -1.609375 C 35.0625 -0.535156 33.078125 0 30.890625 0 L 16.515625 0 C 14.328125 0 12.328125 -0.535156 10.515625 -1.609375 C 8.710938 -2.679688 7.273438 -4.117188 6.203125 -5.921875 C 5.140625 -7.734375 4.609375 -9.734375 4.609375 -11.921875 L 4.609375 -13.625 L 8 -13.625 L 8 -11.921875 C 8 -10.359375 8.390625 -8.9375 9.171875 -7.65625 C 9.953125 -6.375 10.984375 -5.34375 12.265625 -4.5625 C 13.546875 -3.789062 14.960938 -3.40625 16.515625 -3.40625 L 30.890625 -3.40625 C 32.441406 -3.40625 33.859375 -3.789062 35.140625 -4.5625 C 36.429688 -5.34375 37.453125 -6.375 38.203125 -7.65625 C 38.960938 -8.9375 39.34375 -10.359375 39.34375 -11.921875 C 39.34375 -13.472656 38.960938 -14.890625 38.203125 -16.171875 C 37.453125 -17.453125 36.429688 -18.46875 35.140625 -19.21875 C 33.859375 -19.976562 32.441406 -20.359375 30.890625 -20.359375 L 4.609375 -20.359375 L 4.609375 -44.140625 L 42.75 -44.140625 L 42.75 -40.734375 L 8 -40.734375 L 8 -23.765625 Z M 30.890625 -23.765625 "/></g></g></g><g fill="#000000" fill-opacity="1"><g transform="translate(185.053816, 211.255225)"><g><path d="M 30.890625 -23.765625 C 33.078125 -23.765625 35.0625 -23.226562 36.84375 -22.15625 C 38.632812 -21.082031 40.066406 -19.648438 41.140625 -17.859375 C 42.210938 -16.078125 42.75 -14.097656 42.75 -11.921875 C 42.75 -9.734375 42.210938 -7.734375 41.140625 -5.921875 C 40.066406 -4.117188 38.632812 -2.679688 36.84375 -1.609375 C 35.0625 -0.535156 33.078125 0 30.890625 0 L 16.515625 0 C 14.328125 0 12.328125 -0.535156 10.515625 -1.609375 C 8.710938 -2.679688 7.273438 -4.117188 6.203125 -5.921875 C 5.140625 -7.734375 4.609375 -9.734375 4.609375 -11.921875 L 4.609375 -13.625 L 8 -13.625 L 8 -11.921875 C 8 -10.359375 8.390625 -8.9375 9.171875 -7.65625 C 9.953125 -6.375 10.984375 -5.34375 12.265625 -4.5625 C 13.546875 -3.789062 14.960938 -3.40625 16.515625 -3.40625 L 30.890625 -3.40625 C 32.441406 -3.40625 33.859375 -3.789062 35.140625 -4.5625 C 36.429688 -5.34375 37.453125 -6.375 38.203125 -7.65625 C 38.960938 -8.9375 39.34375 -10.359375 39.34375 -11.921875 C 39.34375 -13.472656 38.960938 -14.890625 38.203125 -16.171875 C 37.453125 -17.453125 36.429688 -18.46875 35.140625 -19.21875 C 33.859375 -19.976562 32.441406 -20.359375 30.890625 -20.359375 L 4.609375 -20.359375 L 4.609375 -44.140625 L 42.75 -44.140625 L 42.75 -40.734375 L 8 -40.734375 L 8 -23.765625 Z M 30.890625 -23.765625 "/></g></g></g><g fill="#000000" fill-opacity="1"><g transform="translate(49.582227, 238.151512)"><g><path d="M 0 -1.265625 C 0 -1.265625 -4.382812 -1.265625 -13.15625 -1.265625 C -13.15625 -1.265625 -13.15625 -2.347656 -13.15625 -4.515625 C -13.15625 -5.421875 -13.101562 -6.128906 -13 -6.640625 C -12.90625 -7.148438 -12.734375 -7.601562 -12.484375 -8 C -12.140625 -8.53125 -11.671875 -8.941406 -11.078125 -9.234375 C -10.492188 -9.523438 -9.835938 -9.671875 -9.109375 -9.671875 C -8.328125 -9.671875 -7.613281 -9.503906 -6.96875 -9.171875 C -6.332031 -8.847656 -5.859375 -8.40625 -5.546875 -7.84375 C -5.347656 -7.476562 -5.207031 -7.046875 -5.125 -6.546875 C -5.039062 -6.054688 -5 -5.367188 -5 -4.484375 L -5 -3.703125 L 0 -3.703125 Z M -7.34375 -3.703125 L -7.34375 -4.421875 C -7.34375 -5.160156 -7.398438 -5.71875 -7.515625 -6.09375 C -7.609375 -6.4375 -7.789062 -6.707031 -8.0625 -6.90625 C -8.34375 -7.101562 -8.671875 -7.203125 -9.046875 -7.203125 C -9.460938 -7.203125 -9.816406 -7.097656 -10.109375 -6.890625 C -10.410156 -6.691406 -10.609375 -6.421875 -10.703125 -6.078125 C -10.785156 -5.722656 -10.828125 -5.203125 -10.828125 -4.515625 L -10.828125 -3.703125 Z M -7.34375 -3.703125 "/></g></g></g><g fill="#000000" fill-opacity="1"><g transform="translate(49.582227, 223.280419)"><g><path d="M 0 -1.265625 C 0 -1.265625 -4.382812 -1.265625 -13.15625 -1.265625 C -13.15625 -1.265625 -13.15625 -2.53125 -13.15625 -5.0625 C -13.15625 -6 -13.078125 -6.738281 -12.921875 -7.28125 C -12.773438 -7.820312 -12.503906 -8.3125 -12.109375 -8.75 C -11.335938 -9.613281 -10.28125 -10.046875 -8.9375 -10.046875 C -7.59375 -10.046875 -6.539062 -9.570312 -5.78125 -8.625 C -5.550781 -8.34375 -5.367188 -8.054688 -5.234375 -7.765625 C -5.109375 -7.484375 -4.984375 -7.097656 -4.859375 -6.609375 L 0 -10.171875 L 0 -7.15625 C 0 -7.15625 -1.679688 -6.003906 -5.046875 -3.703125 C -5.046875 -3.703125 -3.363281 -3.703125 0 -3.703125 C 0 -3.703125 0 -2.890625 0 -1.265625 Z M -6.875 -3.703125 C -6.875 -3.703125 -6.875 -4.097656 -6.875 -4.890625 C -6.875 -5.835938 -7.03125 -6.519531 -7.34375 -6.9375 C -7.664062 -7.363281 -8.175781 -7.578125 -8.875 -7.578125 C -9.550781 -7.578125 -10.0625 -7.359375 -10.40625 -6.921875 C -10.6875 -6.546875 -10.828125 -5.835938 -10.828125 -4.796875 L -10.828125 -3.703125 C -10.828125 -3.703125 -9.507812 -3.703125 -6.875 -3.703125 Z M -6.875 -3.703125 "/></g></g></g><g fill="#000000" fill-opacity="1"><g transform="translate(49.582227, 207.861383)"><g><path d="M -13.390625 -7.609375 C -13.390625 -8.515625 -13.207031 -9.382812 -12.84375 -10.21875 C -12.488281 -11.0625 -12.007812 -11.785156 -11.40625 -12.390625 C -10.800781 -12.992188 -10.078125 -13.472656 -9.234375 -13.828125 C -8.390625 -14.179688 -7.507812 -14.359375 -6.59375 -14.359375 C -5.332031 -14.359375 -4.175781 -14.054688 -3.125 -13.453125 C -2.082031 -12.859375 -1.257812 -12.039062 -0.65625 -11 C -0.0625 -9.96875 0.234375 -8.820312 0.234375 -7.5625 C 0.234375 -6.613281 0.0546875 -5.710938 -0.296875 -4.859375 C -0.648438 -4.003906 -1.128906 -3.269531 -1.734375 -2.65625 C -2.335938 -2.039062 -3.0625 -1.550781 -3.90625 -1.1875 C -4.75 -0.820312 -5.640625 -0.640625 -6.578125 -0.640625 C -7.523438 -0.640625 -8.421875 -0.816406 -9.265625 -1.171875 C -10.109375 -1.535156 -10.828125 -2.023438 -11.421875 -2.640625 C -12.023438 -3.253906 -12.503906 -3.992188 -12.859375 -4.859375 C -13.210938 -5.722656 -13.390625 -6.640625 -13.390625 -7.609375 Z M -11.046875 -7.4375 C -11.046875 -6.238281 -10.609375 -5.210938 -9.734375 -4.359375 C -8.867188 -3.515625 -7.820312 -3.09375 -6.59375 -3.09375 C -5.96875 -3.09375 -5.378906 -3.207031 -4.828125 -3.4375 C -4.285156 -3.675781 -3.8125 -3.988281 -3.40625 -4.375 C -3.007812 -4.769531 -2.695312 -5.242188 -2.46875 -5.796875 C -2.238281 -6.347656 -2.125 -6.929688 -2.125 -7.546875 C -2.125 -8.796875 -2.539062 -9.832031 -3.375 -10.65625 C -4.21875 -11.476562 -5.28125 -11.890625 -6.5625 -11.890625 C -7.851562 -11.890625 -8.921875 -11.46875 -9.765625 -10.625 C -10.617188 -9.789062 -11.046875 -8.726562 -11.046875 -7.4375 Z M -11.046875 -7.4375 "/></g></g></g><g fill="#000000" fill-opacity="1"><g transform="translate(49.582227, 188.197962)"><g><path d="M -13.15625 -5.09375 C -13.15625 -5.09375 -13.15625 -5.90625 -13.15625 -7.53125 C -13.15625 -7.53125 -10.03125 -7.53125 -3.78125 -7.53125 C -2.53125 -7.53125 -1.546875 -7.210938 -0.828125 -6.578125 C -0.117188 -5.941406 0.234375 -5.070312 0.234375 -3.96875 C 0.234375 -3.40625 0.125 -2.875 -0.09375 -2.375 C -0.3125 -1.875 -0.617188 -1.453125 -1.015625 -1.109375 C -1.304688 -0.859375 -1.601562 -0.671875 -1.90625 -0.546875 C -2.207031 -0.429688 -2.609375 -0.359375 -3.109375 -0.328125 L -3.109375 -2.75 C -2.453125 -2.90625 -2.125 -3.296875 -2.125 -3.921875 C -2.125 -4.703125 -2.695312 -5.09375 -3.84375 -5.09375 Z M -13.15625 -5.09375 "/></g></g></g><g fill="#000000" fill-opacity="1"><g transform="translate(49.582227, 174.735866)"><g><path d="M 0 -1.265625 C 0 -1.265625 -4.382812 -1.265625 -13.15625 -1.265625 C -13.15625 -1.265625 -13.15625 -3.617188 -13.15625 -8.328125 C -13.15625 -8.328125 -12.378906 -8.328125 -10.828125 -8.328125 C -10.828125 -8.328125 -10.828125 -6.785156 -10.828125 -3.703125 C -10.828125 -3.703125 -9.796875 -3.703125 -7.734375 -3.703125 C -7.734375 -3.703125 -7.734375 -5.179688 -7.734375 -8.140625 C -7.734375 -8.140625 -6.957031 -8.140625 -5.40625 -8.140625 C -5.40625 -8.140625 -5.40625 -6.660156 -5.40625 -3.703125 C -5.40625 -3.703125 -4.378906 -3.703125 -2.328125 -3.703125 C -2.328125 -3.703125 -2.328125 -5.242188 -2.328125 -8.328125 C -2.328125 -8.328125 -1.550781 -8.328125 0 -8.328125 C 0 -8.328125 0 -5.972656 0 -1.265625 Z M 0 -1.265625 "/></g></g></g><g fill="#000000" fill-opacity="1"><g transform="translate(49.582227, 160.734524)"><g><path d="M 0 -1.265625 C 0 -1.265625 -4.382812 -1.265625 -13.15625 -1.265625 C -13.15625 -1.265625 -13.15625 -2.078125 -13.15625 -3.703125 C -13.15625 -3.703125 -11.265625 -3.703125 -7.484375 -3.703125 C -7.484375 -3.703125 -9.375 -5.0625 -13.15625 -7.78125 C -13.15625 -7.78125 -13.15625 -8.757812 -13.15625 -10.71875 C -13.15625 -10.71875 -11.003906 -9.070312 -6.703125 -5.78125 C -6.703125 -5.78125 -4.46875 -7.425781 0 -10.71875 C 0 -10.71875 0 -9.738281 0 -7.78125 C 0 -7.78125 -1.929688 -6.421875 -5.796875 -3.703125 C -5.796875 -3.703125 -3.863281 -3.703125 0 -3.703125 C 0 -3.703125 0 -2.890625 0 -1.265625 Z M 0 -1.265625 "/></g></g></g><g fill="#000000" fill-opacity="1"><g transform="translate(49.582227, 145.13284)"><g><path d="M 0 -2.5625 C 0 -2.5625 -3.609375 -2.5625 -10.828125 -2.5625 C -10.828125 -2.5625 -10.828125 -1.75 -10.828125 -0.125 C -10.828125 -0.125 -11.601562 -0.125 -13.15625 -0.125 C -13.15625 -0.125 -13.15625 -2.5625 -13.15625 -7.4375 C -13.15625 -7.4375 -12.378906 -7.4375 -10.828125 -7.4375 C -10.828125 -7.4375 -10.828125 -6.625 -10.828125 -5 C -10.828125 -5 -7.21875 -5 0 -5 C 0 -5 0 -4.1875 0 -2.5625 Z M 0 -2.5625 "/></g></g></g></svg>